<svg width="96" height="96" viewBox="0 0 96 96" fill="none" xmlns="http://www.w3.org/2000/svg">
<path d="M14.4 19.2002C9.105 19.2002 4.8 23.5052 4.8 28.8002V38.4002C4.8 39.7202 5.91 40.7552 7.155 41.1902C9.975 42.1652 12 44.8502 12 48.0002C12 51.1502 9.975 53.8352 7.155 54.8102C5.91 55.2452 4.8 56.2802 4.8 57.6002V67.2002C4.8 72.4952 9.105 76.8002 14.4 76.8002H81.6C86.895 76.8002 91.2 72.4952 91.2 67.2002V57.6002C91.2 56.2802 90.09 55.2452 88.845 54.8102C86.025 53.8352 84 51.1502 84 48.0002C84 44.8502 86.025 42.1652 88.845 41.1902C90.09 40.7552 91.2 39.7202 91.2 38.4002V28.8002C91.2 23.5052 86.895 19.2002 81.6 19.2002H14.4ZM67.2 60.0002V36.0002H28.8V60.0002H67.2ZM21.6 33.6002C21.6 30.9452 23.745 28.8002 26.4 28.8002H69.6C72.255 28.8002 74.4 30.9452 74.4 33.6002V62.4002C74.4 65.0552 72.255 67.2002 69.6 67.2002H26.4C23.745 67.2002 21.6 65.0552 21.6 62.4002V33.6002Z" fill="#A7F7AF"/>
</svg>
