<svg width="96" height="96" viewBox="0 0 96 96" fill="none" xmlns="http://www.w3.org/2000/svg">
<path d="M86.4 14.3996C86.4 30.6146 74.91 44.1446 59.64 47.3096C58.455 38.5946 54.54 30.7496 48.765 24.6746C54.78 15.5996 65.085 9.59961 76.8 9.59961H81.6C84.255 9.59961 86.4 11.7446 86.4 14.3996ZM9.60001 23.9996C9.60001 21.3446 11.745 19.1996 14.4 19.1996H19.2C37.755 19.1996 52.8 34.2446 52.8 52.7996V81.5996C52.8 84.2546 50.655 86.3996 48 86.3996C45.345 86.3996 43.2 84.2546 43.2 81.5996V57.5996C24.645 57.5996 9.60001 42.5546 9.60001 23.9996Z" fill="#D1BBFF"/>
</svg>
