<svg width="96" height="96" viewBox="0 0 96 96" fill="none" xmlns="http://www.w3.org/2000/svg">
<path d="M72 40.7996C72 47.6846 69.765 54.0446 66 59.2046L84.99 78.2096C86.865 80.0846 86.865 83.1296 84.99 85.0046C83.115 86.8796 80.07 86.8796 78.195 85.0046L59.205 65.9996C54.045 69.7646 47.685 71.9996 40.8 71.9996C23.565 71.9996 9.6 58.0346 9.6 40.7996C9.6 23.5646 23.565 9.59961 40.8 9.59961C58.035 9.59961 72 23.5646 72 40.7996ZM25.2 41.9996V51.5996C25.2 53.5946 26.805 55.1996 28.8 55.1996C30.795 55.1996 32.4 53.5946 32.4 51.5996V41.9996C32.4 40.0046 30.795 38.3996 28.8 38.3996C26.805 38.3996 25.2 40.0046 25.2 41.9996ZM37.2 27.5996V51.5996C37.2 53.5946 38.805 55.1996 40.8 55.1996C42.795 55.1996 44.4 53.5946 44.4 51.5996V27.5996C44.4 25.6046 42.795 23.9996 40.8 23.9996C38.805 23.9996 37.2 25.6046 37.2 27.5996ZM49.2 37.1996V51.5996C49.2 53.5946 50.805 55.1996 52.8 55.1996C54.795 55.1996 56.4 53.5946 56.4 51.5996V37.1996C56.4 35.2046 54.795 33.5996 52.8 33.5996C50.805 33.5996 49.2 35.2046 49.2 37.1996Z" fill="#103C50"/>
</svg>
