<svg width="96" height="96" viewBox="0 0 96 96" fill="none" xmlns="http://www.w3.org/2000/svg">
<path d="M65.22 8.1148C67.005 9.4048 67.665 11.7448 66.855 13.7848L55.095 43.1998H76.8C78.825 43.1998 80.625 44.4598 81.315 46.3648C82.005 48.2698 81.42 50.3998 79.875 51.6898L36.675 87.6898C34.98 89.0998 32.565 89.1748 30.78 87.8848C28.995 86.5948 28.335 84.2548 29.145 82.2148L40.905 52.7998H19.2C17.175 52.7998 15.375 51.5398 14.685 49.6348C13.995 47.7298 14.58 45.5998 16.125 44.3098L59.325 8.3098C61.02 6.8998 63.435 6.8248 65.22 8.1148Z" fill="#D1BBFF"/>
</svg>
