<svg width="96" height="96" viewBox="0 0 96 96" fill="none" xmlns="http://www.w3.org/2000/svg">
<path d="M43.56 10.4996C43.335 9.95961 42.81 9.59961 42.225 9.59961H39.375C38.79 9.59961 38.25 9.95961 38.04 10.4996L34.935 18.2546C34.455 19.4546 32.745 19.4546 32.265 18.2546L29.16 10.4996C28.935 9.95961 28.41 9.59961 27.825 9.59961H26.4C22.425 9.59961 19.2 12.8246 19.2 16.7996V47.9996H76.8V16.7996C76.8 12.8246 73.575 9.59961 69.6 9.59961H53.775C53.19 9.59961 52.65 9.95961 52.44 10.4996L49.335 18.2546C48.855 19.4546 47.145 19.4546 46.665 18.2546L43.56 10.4996ZM19.2 55.1996V57.5996C19.2 62.8946 23.505 67.1996 28.8 67.1996H38.4V76.7996C38.4 82.0946 42.705 86.3996 48 86.3996C53.295 86.3996 57.6 82.0946 57.6 76.7996V67.1996H67.2C72.495 67.1996 76.8 62.8946 76.8 57.5996V55.1996H19.2ZM48 79.1996C46.68 79.1996 45.6 78.1196 45.6 76.7996C45.6 75.4796 46.68 74.3996 48 74.3996C49.32 74.3996 50.4 75.4796 50.4 76.7996C50.4 78.1196 49.32 79.1996 48 79.1996Z" fill="#103C50"/>
</svg>
