<svg width="96" height="96" viewBox="0 0 96 96" fill="none" xmlns="http://www.w3.org/2000/svg">
<path d="M33.6 23.9996C33.6 16.0496 40.05 9.59961 48 9.59961C55.95 9.59961 62.4 16.0496 62.4 23.9996V24.5396C62.4 26.8946 60.495 28.7996 58.14 28.7996H37.875C35.52 28.7996 33.615 26.8946 33.615 24.5396V23.9996H33.6ZM85.44 25.9196C87.03 28.0346 86.595 31.0496 84.48 32.6396L69.81 43.6346C70.605 44.9696 71.205 46.4396 71.58 47.9996H86.4C89.055 47.9996 91.2 50.1446 91.2 52.7996C91.2 55.4546 89.055 57.5996 86.4 57.5996H72V62.3996C72 62.7896 71.985 63.1946 71.97 63.5846L84.48 72.9596C86.595 74.5496 87.03 77.5646 85.44 79.6796C83.85 81.7946 80.835 82.2296 78.72 80.6396L69.255 73.5446C65.775 80.1746 59.28 84.9746 51.6 86.1296V51.5996C51.6 49.6046 49.995 47.9996 48 47.9996C46.005 47.9996 44.4 49.6046 44.4 51.5996V86.1296C36.72 84.9746 30.225 80.1746 26.745 73.5446L17.28 80.6396C15.165 82.2296 12.15 81.7946 10.56 79.6796C8.97 77.5646 9.405 74.5496 11.52 72.9596L24.03 63.5846C24.015 63.1946 24 62.8046 24 62.3996V57.5996H9.6C6.945 57.5996 4.8 55.4546 4.8 52.7996C4.8 50.1446 6.945 47.9996 9.6 47.9996H24.42C24.795 46.4396 25.395 44.9696 26.19 43.6346L11.52 32.6396C9.405 31.0496 8.97 28.0346 10.56 25.9196C12.15 23.8046 15.165 23.3696 17.28 24.9596L33.6 37.1996C35.445 36.4346 37.47 35.9996 39.6 35.9996H56.4C58.53 35.9996 60.555 36.4196 62.4 37.1996L78.72 24.9596C80.835 23.3696 83.85 23.8046 85.44 25.9196Z" fill="#A7F7AF"/>
</svg>
